<?xml version="1.0" encoding="UTF-8" standalone="no"?>
<!DOCTYPE svg PUBLIC "-//W3C//DTD SVG 1.1//EN"
 "http://www.w3.org/Graphics/SVG/1.1/DTD/svg11.dtd">
<!-- Generated by graphviz version 2.43.0 (0)
 -->
<!-- Title: DynamicApproach Pages: 1 -->
<svg width="1921pt" height="987pt"
 viewBox="0.00 0.00 922.00 473.62" xmlns="http://www.w3.org/2000/svg" xmlns:xlink="http://www.w3.org/1999/xlink">
<g id="graph0" class="graph" transform="scale(1.67 1.67) rotate(0) translate(57.6 554)">
<title>DynamicApproach</title>
<polygon fill="white" stroke="transparent" points="-57.6,36 -57.6,-554 1090.96,-554 1090.96,36 -57.6,36"/>
<!-- realsense -->
<g id="node1" class="node">
<title>realsense</title>
<polygon fill="#cfd8dc" stroke="black" stroke-width="0.8" points="123.36,-518 59.36,-518 55.36,-514 55.36,-482 119.36,-482 123.36,-486 123.36,-518"/>
<polyline fill="none" stroke="black" stroke-width="0.8" points="119.36,-514 55.36,-514 "/>
<polyline fill="none" stroke="black" stroke-width="0.8" points="119.36,-514 119.36,-482 "/>
<polyline fill="none" stroke="black" stroke-width="0.8" points="119.36,-514 123.36,-518 "/>
<text text-anchor="middle" x="89.36" y="-503" font-family="Helvetica Neue, Helvetica, Arial, sans-serif" font-size="10.00" fill="#37474f">RealSense</text>
<text text-anchor="middle" x="89.36" y="-492" font-family="Helvetica Neue, Helvetica, Arial, sans-serif" font-size="10.00" fill="#37474f">Camera</text>
</g>
<!-- aruco -->
<g id="node3" class="node">
<title>aruco</title>
<path fill="#90caf9" stroke="black" stroke-width="1.3" d="M137.36,-397C137.36,-397 41.36,-397 41.36,-397 35.36,-397 29.36,-391 29.36,-385 29.36,-385 29.36,-373 29.36,-373 29.36,-367 35.36,-361 41.36,-361 41.36,-361 137.36,-361 137.36,-361 143.36,-361 149.36,-367 149.36,-373 149.36,-373 149.36,-385 149.36,-385 149.36,-391 143.36,-397 137.36,-397"/>
<text text-anchor="middle" x="89.36" y="-382" font-family="Helvetica Neue, Helvetica, Arial, sans-serif" font-size="10.00" fill="#0d47a1">aruco_all_distance</text>
<text text-anchor="middle" x="89.36" y="-371" font-family="Helvetica Neue, Helvetica, Arial, sans-serif" font-size="10.00" fill="#0d47a1">(ArUco marker tracker)</text>
</g>
<!-- realsense&#45;&gt;aruco -->
<g id="edge1" class="edge">
<title>realsense&#45;&gt;aruco</title>
<path fill="none" stroke="#1976d2" stroke-width="1.3" d="M89.36,-481.95C89.36,-461.54 89.36,-427.22 89.36,-404.1"/>
<polygon fill="#1976d2" stroke="#1976d2" stroke-width="1.3" points="91.81,-404.02 89.36,-397.02 86.91,-404.02 91.81,-404.02"/>
<text text-anchor="start" x="91.86" y="-441.6" font-family="Helvetica Neue, Helvetica, Arial, sans-serif" font-size="8.00" fill="#1565c0">/camera/color/image_raw</text>
<text text-anchor="start" x="89.36" y="-432.6" font-family="Helvetica Neue, Helvetica, Arial, sans-serif" font-size="8.00" fill="#1565c0">/camera/color/camera_info</text>
</g>
<!-- rsp -->
<g id="node2" class="node">
<title>rsp</title>
<path fill="#cfd8dc" stroke="black" stroke-width="0.8" d="M387.86,-518C387.86,-518 294.86,-518 294.86,-518 288.86,-518 282.86,-512 282.86,-506 282.86,-506 282.86,-494 282.86,-494 282.86,-488 288.86,-482 294.86,-482 294.86,-482 387.86,-482 387.86,-482 393.86,-482 399.86,-488 399.86,-494 399.86,-494 399.86,-506 399.86,-506 399.86,-512 393.86,-518 387.86,-518"/>
<text text-anchor="middle" x="341.36" y="-503" font-family="Helvetica Neue, Helvetica, Arial, sans-serif" font-size="10.00" fill="#37474f">Robot State Publisher</text>
<text text-anchor="middle" x="341.36" y="-492" font-family="Helvetica Neue, Helvetica, Arial, sans-serif" font-size="10.00" fill="#37474f">+ TF2</text>
</g>
<!-- planning -->
<g id="node4" class="node">
<title>planning</title>
<path fill="#81c784" stroke="black" stroke-width="1.3" d="M305.36,-279C305.36,-279 125.36,-279 125.36,-279 119.36,-279 113.36,-273 113.36,-267 113.36,-267 113.36,-255 113.36,-255 113.36,-249 119.36,-243 125.36,-243 125.36,-243 305.36,-243 305.36,-243 311.36,-243 317.36,-249 317.36,-255 317.36,-255 317.36,-267 317.36,-267 317.36,-273 311.36,-279 305.36,-279"/>
<text text-anchor="middle" x="215.36" y="-264" font-family="Helvetica Neue, Helvetica, Arial, sans-serif" font-size="10.00" fill="#1b5e20">planning_node</text>
<text text-anchor="middle" x="215.36" y="-253" font-family="Helvetica Neue, Helvetica, Arial, sans-serif" font-size="10.00" fill="#1b5e20">(IK · aruco tracking · motion orchestration)</text>
</g>
<!-- rsp&#45;&gt;planning -->
<g id="edge2" class="edge">
<title>rsp&#45;&gt;planning</title>
<path fill="none" stroke="#78909c" d="M340.87,-481.85C339.05,-446.79 330.68,-365.76 292.36,-312.5 283.7,-300.46 271.2,-290.51 258.78,-282.72"/>
<polygon fill="#78909c" stroke="#78909c" points="259.97,-280.57 252.7,-279.07 257.44,-284.77 259.97,-280.57"/>
<text text-anchor="start" x="328.36" y="-381.6" font-family="Helvetica Neue, Helvetica, Arial, sans-serif" font-size="8.00" fill="#546e7a">/robot_description</text>
<text text-anchor="start" x="328.36" y="-372.6" font-family="Helvetica Neue, Helvetica, Arial, sans-serif" font-size="8.00" fill="#546e7a">/joint_states · TF2</text>
</g>
<!-- aruco&#45;&gt;planning -->
<g id="edge3" class="edge">
<title>aruco&#45;&gt;planning</title>
<path fill="none" stroke="#1565c0" stroke-width="1.6" d="M107.96,-360.88C130.1,-340.49 167.15,-306.39 191.42,-284.04"/>
<polygon fill="#1565c0" stroke="#1565c0" stroke-width="1.6" points="193.21,-285.73 196.7,-279.19 189.89,-282.13 193.21,-285.73"/>
<text text-anchor="start" x="185.36" y="-322.1" font-family="Helvetica Neue, Helvetica, Arial, sans-serif" font-weight="bold" font-size="8.00" fill="#1565c0">/aruco_distances</text>
<text text-anchor="start" x="160.36" y="-314.9" font-family="Helvetica Neue, Helvetica, Arial, sans-serif" font-size="7.00" fill="#666666">Float32MultiArray &#160;[id, dist, x, y, z, …]</text>
</g>
<!-- moving -->
<g id="node5" class="node">
<title>moving</title>
<path fill="#d7ccc8" stroke="black" stroke-width="1.3" d="M471.36,-154C471.36,-154 343.36,-154 343.36,-154 337.36,-154 331.36,-148 331.36,-142 331.36,-142 331.36,-130 331.36,-130 331.36,-124 337.36,-118 343.36,-118 343.36,-118 471.36,-118 471.36,-118 477.36,-118 483.36,-124 483.36,-130 483.36,-130 483.36,-142 483.36,-142 483.36,-148 477.36,-154 471.36,-154"/>
<text text-anchor="middle" x="407.36" y="-139" font-family="Helvetica Neue, Helvetica, Arial, sans-serif" font-size="10.00" fill="#3e2723">moving_node</text>
<text text-anchor="middle" x="407.36" y="-128" font-family="Helvetica Neue, Helvetica, Arial, sans-serif" font-size="10.00" fill="#3e2723">(joint / carriage / lift forwarder)</text>
</g>
<!-- planning&#45;&gt;moving -->
<g id="edge4" class="edge">
<title>planning&#45;&gt;moving</title>
<path fill="none" stroke="#2e7d32" stroke-width="1.3" d="M242.06,-242.9C276.64,-220.75 336.9,-182.14 374.33,-158.16"/>
<polygon fill="#2e7d32" stroke="#2e7d32" stroke-width="1.3" points="376.01,-159.99 380.59,-154.16 373.37,-155.87 376.01,-159.99"/>
<text text-anchor="start" x="323.36" y="-201.6" font-family="Helvetica Neue, Helvetica, Arial, sans-serif" font-weight="bold" font-size="8.00" fill="#2e7d32">/move_robot_goal</text>
<text text-anchor="start" x="393.36" y="-201.6" font-family="Helvetica Neue, Helvetica, Arial, sans-serif" font-size="8.00" fill="#2e7d32"> &#160;(Float64MultiArray)</text>
<text text-anchor="start" x="336.36" y="-193.6" font-family="Helvetica Neue, Helvetica, Arial, sans-serif" font-weight="bold" font-size="8.00" fill="#2e7d32">/move_carriage_goal</text>
<text text-anchor="start" x="416.36" y="-193.6" font-family="Helvetica Neue, Helvetica, Arial, sans-serif" font-size="8.00" fill="#2e7d32"> &#160;(Float32)</text>
</g>
<!-- cmd_exec -->
<g id="node6" class="node">
<title>cmd_exec</title>
<path fill="#bcaaa4" stroke="black" stroke-width="1.3" d="M170.36,-154C170.36,-154 44.36,-154 44.36,-154 38.36,-154 32.36,-148 32.36,-142 32.36,-142 32.36,-130 32.36,-130 32.36,-124 38.36,-118 44.36,-118 44.36,-118 170.36,-118 170.36,-118 176.36,-118 182.36,-124 182.36,-130 182.36,-130 182.36,-142 182.36,-142 182.36,-148 176.36,-154 170.36,-154"/>
<text text-anchor="middle" x="107.36" y="-139" font-family="Helvetica Neue, Helvetica, Arial, sans-serif" font-size="10.00" fill="#3e2723">command_executor_node</text>
<text text-anchor="middle" x="107.36" y="-128" font-family="Helvetica Neue, Helvetica, Arial, sans-serif" font-size="10.00" fill="#3e2723">(waypoint sequence executor)</text>
</g>
<!-- planning&#45;&gt;cmd_exec -->
<g id="edge6" class="edge">
<title>planning&#45;&gt;cmd_exec</title>
<path fill="none" stroke="#e65100" stroke-width="1.4" stroke-dasharray="5,2" d="M196.84,-242.97C186.89,-233.56 174.61,-221.47 164.36,-210 150.02,-193.95 135.09,-174.72 124.11,-160.03"/>
<polygon fill="#e65100" stroke="#e65100" stroke-width="1.4" points="125.8,-158.19 119.66,-154.03 121.87,-161.11 125.8,-158.19"/>
<text text-anchor="start" x="170.36" y="-204.6" font-family="Helvetica Neue, Helvetica, Arial, sans-serif" font-weight="bold" font-size="8.00" fill="#e65100">/execute_command</text>
<text text-anchor="start" x="169.36" y="-197.4" font-family="Helvetica Neue, Helvetica, Arial, sans-serif" font-size="7.00" fill="#999999">ExecuteCommand action</text>
<text text-anchor="start" x="164.36" y="-190.4" font-family="Helvetica Neue, Helvetica, Arial, sans-serif" font-size="7.00" fill="#999999">(gripper, init, dynamic_scan)</text>
</g>
<!-- moving&#45;&gt;planning -->
<g id="edge5" class="edge">
<title>moving&#45;&gt;planning</title>
<path fill="none" stroke="#90a4ae" stroke-width="0.9" stroke-dasharray="5,2" d="M483.69,-138.85C564.52,-143.45 674.65,-158.92 629.36,-210 609.39,-232.54 440.48,-246.9 324.69,-254.19"/>
<polygon fill="#90a4ae" stroke="#90a4ae" stroke-width="0.9" points="324.32,-251.76 317.48,-254.64 324.62,-256.65 324.32,-251.76"/>
<text text-anchor="start" x="658.36" y="-201.6" font-family="Helvetica Neue, Helvetica, Arial, sans-serif" font-size="8.00" fill="#78909c">/move_robot_result</text>
<text text-anchor="start" x="639.36" y="-192.6" font-family="Helvetica Neue, Helvetica, Arial, sans-serif" font-size="8.00" fill="#78909c">/move_carriage_result &#160;(Bool)</text>
</g>
<!-- elmo -->
<g id="node9" class="node">
<title>elmo</title>
<polygon fill="#cfd8dc" stroke="black" stroke-width="0.8" points="312.36,-36 232.36,-36 228.36,-32 228.36,0 308.36,0 312.36,-4 312.36,-36"/>
<polyline fill="none" stroke="black" stroke-width="0.8" points="308.36,-32 228.36,-32 "/>
<polyline fill="none" stroke="black" stroke-width="0.8" points="308.36,-32 308.36,0 "/>
<polyline fill="none" stroke="black" stroke-width="0.8" points="308.36,-32 312.36,-36 "/>
<text text-anchor="middle" x="270.36" y="-21" font-family="Helvetica Neue, Helvetica, Arial, sans-serif" font-size="10.00" fill="#37474f">ELMO Drives</text>
<text text-anchor="middle" x="270.36" y="-10" font-family="Helvetica Neue, Helvetica, Arial, sans-serif" font-size="10.00" fill="#37474f">(carriage + lift)</text>
</g>
<!-- moving&#45;&gt;elmo -->
<g id="edge11" class="edge">
<title>moving&#45;&gt;elmo</title>
<path fill="none" stroke="#78909c" d="M382.16,-117.79C368.81,-108.37 352.34,-96.25 338.36,-84.5 322.08,-70.81 304.84,-54.17 291.78,-41.08"/>
<polygon fill="#78909c" stroke="#78909c" points="293.49,-39.32 286.82,-36.08 290.01,-42.77 293.49,-39.32"/>
<text text-anchor="start" x="338.36" y="-75.1" font-family="Helvetica Neue, Helvetica, Arial, sans-serif" font-size="8.00" fill="#546e7a">/elmo/id1/{carriage,lift}/position/set</text>
</g>
<!-- jtc -->
<g id="node10" class="node">
<title>jtc</title>
<path fill="#cfd8dc" stroke="black" stroke-width="0.8" d="M726.86,-36C726.86,-36 665.86,-36 665.86,-36 659.86,-36 653.86,-30 653.86,-24 653.86,-24 653.86,-12 653.86,-12 653.86,-6 659.86,0 665.86,0 665.86,0 726.86,0 726.86,0 732.86,0 738.86,-6 738.86,-12 738.86,-12 738.86,-24 738.86,-24 738.86,-30 732.86,-36 726.86,-36"/>
<text text-anchor="middle" x="696.36" y="-21" font-family="Helvetica Neue, Helvetica, Arial, sans-serif" font-size="10.00" fill="#37474f">joint_trajectory</text>
<text text-anchor="middle" x="696.36" y="-10" font-family="Helvetica Neue, Helvetica, Arial, sans-serif" font-size="10.00" fill="#37474f">_controller</text>
</g>
<!-- moving&#45;&gt;jtc -->
<g id="edge9" class="edge">
<title>moving&#45;&gt;jtc</title>
<path fill="none" stroke="#e65100" stroke-width="1.4" stroke-dasharray="5,2" d="M450.01,-117.88C502.51,-96.81 591.53,-61.08 646.96,-38.83"/>
<polygon fill="#e65100" stroke="#e65100" stroke-width="1.4" points="647.96,-41.07 653.55,-36.19 646.14,-36.52 647.96,-41.07"/>
<text text-anchor="start" x="568.36" y="-79.1" font-family="Helvetica Neue, Helvetica, Arial, sans-serif" font-weight="bold" font-size="8.00" fill="#e65100">/…/follow_joint_trajectory</text>
<text text-anchor="start" x="574.86" y="-71.9" font-family="Helvetica Neue, Helvetica, Arial, sans-serif" font-size="7.00" fill="#999999">FollowJointTrajectory action</text>
</g>
<!-- robot_ctrl -->
<g id="node7" class="node">
<title>robot_ctrl</title>
<path fill="#d7ccc8" stroke="black" stroke-width="1.3" d="M878.36,-154C878.36,-154 756.36,-154 756.36,-154 750.36,-154 744.36,-148 744.36,-142 744.36,-142 744.36,-130 744.36,-130 744.36,-124 750.36,-118 756.36,-118 756.36,-118 878.36,-118 878.36,-118 884.36,-118 890.36,-124 890.36,-130 890.36,-130 890.36,-142 890.36,-142 890.36,-148 884.36,-154 878.36,-154"/>
<text text-anchor="middle" x="817.36" y="-139" font-family="Helvetica Neue, Helvetica, Arial, sans-serif" font-size="10.00" fill="#3e2723">robot_controller_node</text>
<text text-anchor="middle" x="817.36" y="-128" font-family="Helvetica Neue, Helvetica, Arial, sans-serif" font-size="10.00" fill="#3e2723">(MoveToJoints action server)</text>
</g>
<!-- cmd_exec&#45;&gt;robot_ctrl -->
<g id="edge7" class="edge">
<title>cmd_exec&#45;&gt;robot_ctrl</title>
<path fill="none" stroke="#e65100" stroke-width="1.4" stroke-dasharray="5,2" d="M169.68,-154.01C265.62,-179.36 455.2,-219.97 615.36,-196.5 667.07,-188.92 723.92,-170.99 764.1,-156.6"/>
<polygon fill="#e65100" stroke="#e65100" stroke-width="1.4" points="765.15,-158.82 770.9,-154.14 763.48,-154.22 765.15,-158.82"/>
<text text-anchor="start" x="552.36" y="-201.1" font-family="Helvetica Neue, Helvetica, Arial, sans-serif" font-weight="bold" font-size="8.00" fill="#e65100">/move_to_joints</text>
<text text-anchor="start" x="551.36" y="-193.9" font-family="Helvetica Neue, Helvetica, Arial, sans-serif" font-size="7.00" fill="#999999">MoveToJoints action</text>
</g>
<!-- gripper -->
<g id="node8" class="node">
<title>gripper</title>
<path fill="#cfd8dc" stroke="black" stroke-width="0.8" d="M96.36,-36C96.36,-36 36.36,-36 36.36,-36 30.36,-36 24.36,-30 24.36,-24 24.36,-24 24.36,-12 24.36,-12 24.36,-6 30.36,0 36.36,0 36.36,0 96.36,0 96.36,0 102.36,0 108.36,-6 108.36,-12 108.36,-12 108.36,-24 108.36,-24 108.36,-30 102.36,-36 96.36,-36"/>
<text text-anchor="middle" x="66.36" y="-21" font-family="Helvetica Neue, Helvetica, Arial, sans-serif" font-size="10.00" fill="#37474f">robotiq_gripper</text>
<text text-anchor="middle" x="66.36" y="-10" font-family="Helvetica Neue, Helvetica, Arial, sans-serif" font-size="10.00" fill="#37474f">_controller</text>
</g>
<!-- cmd_exec&#45;&gt;gripper -->
<g id="edge8" class="edge">
<title>cmd_exec&#45;&gt;gripper</title>
<path fill="none" stroke="#e65100" stroke-width="1.4" stroke-dasharray="5,2" d="M101.31,-117.88C94.32,-98.09 82.76,-65.38 74.86,-43.05"/>
<polygon fill="#e65100" stroke="#e65100" stroke-width="1.4" points="77.08,-41.97 72.44,-36.19 72.46,-43.6 77.08,-41.97"/>
<text text-anchor="start" x="96.36" y="-79.1" font-family="Helvetica Neue, Helvetica, Arial, sans-serif" font-weight="bold" font-size="8.00" fill="#e65100">/…/gripper_cmd</text>
<text text-anchor="start" x="89.36" y="-71.9" font-family="Helvetica Neue, Helvetica, Arial, sans-serif" font-size="7.00" fill="#999999">GripperCommand action</text>
</g>
<!-- robot_ctrl&#45;&gt;jtc -->
<g id="edge10" class="edge">
<title>robot_ctrl&#45;&gt;jtc</title>
<path fill="none" stroke="#e65100" stroke-width="1.4" stroke-dasharray="5,2" d="M799.51,-117.88C778.24,-97.49 742.67,-63.39 719.36,-41.04"/>
<polygon fill="#e65100" stroke="#e65100" stroke-width="1.4" points="721.04,-39.26 714.29,-36.19 717.65,-42.8 721.04,-39.26"/>
<text text-anchor="start" x="763.36" y="-79.1" font-family="Helvetica Neue, Helvetica, Arial, sans-serif" font-weight="bold" font-size="8.00" fill="#e65100">/…/follow_joint_trajectory</text>
<text text-anchor="start" x="769.86" y="-71.9" font-family="Helvetica Neue, Helvetica, Arial, sans-serif" font-size="7.00" fill="#999999">FollowJointTrajectory action</text>
</g>
<!-- elmo&#45;&gt;planning -->
<g id="edge12" class="edge">
<title>elmo&#45;&gt;planning</title>
<path fill="none" stroke="#b0bec5" stroke-width="0.8" stroke-dasharray="5,2" d="M312.63,-23.05C387.44,-30.48 547.95,-47.54 682.36,-69.5 685.68,-70.04 917.24,-115.4 919.36,-118 929.48,-130.4 928.62,-140.95 919.36,-154 875.77,-215.45 832.98,-193.99 759.36,-210 610.98,-242.27 435.41,-253.74 324.71,-257.79"/>
<polygon fill="#b0bec5" stroke="#b0bec5" stroke-width="0.8" points="324.42,-255.35 317.51,-258.05 324.59,-260.25 324.42,-255.35"/>
<text text-anchor="start" x="926.36" y="-134.1" font-family="Helvetica Neue, Helvetica, Arial, sans-serif" font-size="8.00" fill="#90a4ae">/elmo/id1/carriage/position/get</text>
</g>
</g>
</svg>
