<?xml version="1.0" encoding="UTF-8" standalone="no"?>
<!DOCTYPE svg PUBLIC "-//W3C//DTD SVG 1.1//EN"
 "http://www.w3.org/Graphics/SVG/1.1/DTD/svg11.dtd">
<!-- Generated by graphviz version 2.43.0 (0)
 -->
<!-- Title: FixedApproach Pages: 1 -->
<svg width="1899pt" height="1079pt"
 viewBox="0.00 0.00 911.61 518.00" xmlns="http://www.w3.org/2000/svg" xmlns:xlink="http://www.w3.org/1999/xlink">
<g id="graph0" class="graph" transform="scale(1.83 1.83) rotate(0) translate(57.6 554)">
<title>FixedApproach</title>
<polygon fill="white" stroke="transparent" points="-57.6,36 -57.6,-554 980.72,-554 980.72,36 -57.6,36"/>
<!-- rgb_cam -->
<g id="node1" class="node">
<title>rgb_cam</title>
<polygon fill="#cfd8dc" stroke="black" stroke-width="0.8" points="325.12,-518 243.12,-518 239.12,-514 239.12,-482 321.12,-482 325.12,-486 325.12,-518"/>
<polyline fill="none" stroke="black" stroke-width="0.8" points="321.12,-514 239.12,-514 "/>
<polyline fill="none" stroke="black" stroke-width="0.8" points="321.12,-514 321.12,-482 "/>
<polyline fill="none" stroke="black" stroke-width="0.8" points="321.12,-514 325.12,-518 "/>
<text text-anchor="middle" x="282.12" y="-503" font-family="Helvetica Neue, Helvetica, Arial, sans-serif" font-size="10.00" fill="#37474f">RGB Overhead</text>
<text text-anchor="middle" x="282.12" y="-492" font-family="Helvetica Neue, Helvetica, Arial, sans-serif" font-size="10.00" fill="#37474f">Camera</text>
</g>
<!-- human_det -->
<g id="node2" class="node">
<title>human_det</title>
<path fill="#90caf9" stroke="black" stroke-width="1.3" d="M332.62,-397C332.62,-397 231.62,-397 231.62,-397 225.62,-397 219.62,-391 219.62,-385 219.62,-385 219.62,-373 219.62,-373 219.62,-367 225.62,-361 231.62,-361 231.62,-361 332.62,-361 332.62,-361 338.62,-361 344.62,-367 344.62,-373 344.62,-373 344.62,-385 344.62,-385 344.62,-391 338.62,-397 332.62,-397"/>
<text text-anchor="middle" x="282.12" y="-382" font-family="Helvetica Neue, Helvetica, Arial, sans-serif" font-size="10.00" fill="#0d47a1">human_detection_node</text>
<text text-anchor="middle" x="282.12" y="-371" font-family="Helvetica Neue, Helvetica, Arial, sans-serif" font-size="10.00" fill="#0d47a1">(YOLO person detector)</text>
</g>
<!-- rgb_cam&#45;&gt;human_det -->
<g id="edge1" class="edge">
<title>rgb_cam&#45;&gt;human_det</title>
<path fill="none" stroke="#1976d2" stroke-width="1.3" d="M282.12,-481.95C282.12,-461.54 282.12,-427.22 282.12,-404.1"/>
<polygon fill="#1976d2" stroke="#1976d2" stroke-width="1.3" points="284.57,-404.02 282.12,-397.02 279.67,-404.02 284.57,-404.02"/>
<text text-anchor="start" x="284.12" y="-442.6" font-family="Helvetica Neue, Helvetica, Arial, sans-serif" font-size="8.00" fill="#1565c0">/rgb/image_raw</text>
<text text-anchor="start" x="282.12" y="-433.6" font-family="Helvetica Neue, Helvetica, Arial, sans-serif" font-size="8.00" fill="#1565c0">/rgb/camera_info</text>
</g>
<!-- cmd_seq -->
<g id="node3" class="node">
<title>cmd_seq</title>
<path fill="#a5d6a7" stroke="black" stroke-width="1.3" d="M339.62,-271C339.62,-271 224.62,-271 224.62,-271 218.62,-271 212.62,-265 212.62,-259 212.62,-259 212.62,-247 212.62,-247 212.62,-241 218.62,-235 224.62,-235 224.62,-235 339.62,-235 339.62,-235 345.62,-235 351.62,-241 351.62,-247 351.62,-247 351.62,-259 351.62,-259 351.62,-265 345.62,-271 339.62,-271"/>
<text text-anchor="middle" x="282.12" y="-256" font-family="Helvetica Neue, Helvetica, Arial, sans-serif" font-size="10.00" fill="#1b5e20">command_sequence_client</text>
<text text-anchor="middle" x="282.12" y="-245" font-family="Helvetica Neue, Helvetica, Arial, sans-serif" font-size="10.00" fill="#1b5e20">(decision&#45;point sequencer)</text>
</g>
<!-- human_det&#45;&gt;cmd_seq -->
<g id="edge2" class="edge">
<title>human_det&#45;&gt;cmd_seq</title>
<path fill="none" stroke="#388e3c" stroke-width="1.6" d="M282.12,-360.76C282.12,-339.29 282.12,-302.49 282.12,-278.2"/>
<polygon fill="#388e3c" stroke="#388e3c" stroke-width="1.6" points="284.57,-278.1 282.12,-271.1 279.67,-278.1 284.57,-278.1"/>
<text text-anchor="start" x="287.12" y="-322.1" font-family="Helvetica Neue, Helvetica, Arial, sans-serif" font-weight="bold" font-size="8.00" fill="#2e7d32">/human_detection/left</text>
<text text-anchor="start" x="284.62" y="-314.1" font-family="Helvetica Neue, Helvetica, Arial, sans-serif" font-weight="bold" font-size="8.00" fill="#2e7d32">/human_detection/right</text>
<text text-anchor="start" x="282.12" y="-306.9" font-family="Helvetica Neue, Helvetica, Arial, sans-serif" font-size="7.00" fill="#666666">Bool — used at decision points</text>
</g>
<!-- cmd_exec -->
<g id="node4" class="node">
<title>cmd_exec</title>
<path fill="#bcaaa4" stroke="black" stroke-width="1.3" d="M345.12,-154C345.12,-154 219.12,-154 219.12,-154 213.12,-154 207.12,-148 207.12,-142 207.12,-142 207.12,-130 207.12,-130 207.12,-124 213.12,-118 219.12,-118 219.12,-118 345.12,-118 345.12,-118 351.12,-118 357.12,-124 357.12,-130 357.12,-130 357.12,-142 357.12,-142 357.12,-148 351.12,-154 345.12,-154"/>
<text text-anchor="middle" x="282.12" y="-139" font-family="Helvetica Neue, Helvetica, Arial, sans-serif" font-size="10.00" fill="#3e2723">command_executor_node</text>
<text text-anchor="middle" x="282.12" y="-128" font-family="Helvetica Neue, Helvetica, Arial, sans-serif" font-size="10.00" fill="#3e2723">(waypoint sequence executor)</text>
</g>
<!-- cmd_seq&#45;&gt;cmd_exec -->
<g id="edge3" class="edge">
<title>cmd_seq&#45;&gt;cmd_exec</title>
<path fill="none" stroke="#e65100" stroke-width="1.4" stroke-dasharray="5,2" d="M282.12,-234.53C282.12,-215 282.12,-183.23 282.12,-161.29"/>
<polygon fill="#e65100" stroke="#e65100" stroke-width="1.4" points="284.57,-161.25 282.12,-154.25 279.67,-161.25 284.57,-161.25"/>
<text text-anchor="start" x="283.12" y="-197.1" font-family="Helvetica Neue, Helvetica, Arial, sans-serif" font-weight="bold" font-size="8.00" fill="#e65100">/execute_command</text>
<text text-anchor="start" x="282.12" y="-189.9" font-family="Helvetica Neue, Helvetica, Arial, sans-serif" font-size="7.00" fill="#999999">ExecuteCommand action</text>
</g>
<!-- robot_ctrl -->
<g id="node5" class="node">
<title>robot_ctrl</title>
<path fill="#d7ccc8" stroke="black" stroke-width="1.3" d="M839.12,-154C839.12,-154 717.12,-154 717.12,-154 711.12,-154 705.12,-148 705.12,-142 705.12,-142 705.12,-130 705.12,-130 705.12,-124 711.12,-118 717.12,-118 717.12,-118 839.12,-118 839.12,-118 845.12,-118 851.12,-124 851.12,-130 851.12,-130 851.12,-142 851.12,-142 851.12,-148 845.12,-154 839.12,-154"/>
<text text-anchor="middle" x="778.12" y="-139" font-family="Helvetica Neue, Helvetica, Arial, sans-serif" font-size="10.00" fill="#3e2723">robot_controller_node</text>
<text text-anchor="middle" x="778.12" y="-128" font-family="Helvetica Neue, Helvetica, Arial, sans-serif" font-size="10.00" fill="#3e2723">(MoveToJoints action server)</text>
</g>
<!-- cmd_exec&#45;&gt;robot_ctrl -->
<g id="edge4" class="edge">
<title>cmd_exec&#45;&gt;robot_ctrl</title>
<path fill="none" stroke="#e65100" stroke-width="1.4" stroke-dasharray="5,2" d="M357.19,-136C448.91,-136 603.47,-136 697.6,-136"/>
<polygon fill="#e65100" stroke="#e65100" stroke-width="1.4" points="697.83,-138.45 704.83,-136 697.83,-133.55 697.83,-138.45"/>
<text text-anchor="start" x="500.12" y="-148.6" font-family="Helvetica Neue, Helvetica, Arial, sans-serif" font-weight="bold" font-size="8.00" fill="#e65100">/move_to_joints</text>
<text text-anchor="start" x="499.12" y="-141.4" font-family="Helvetica Neue, Helvetica, Arial, sans-serif" font-size="7.00" fill="#999999">MoveToJoints action</text>
</g>
<!-- gripper -->
<g id="node6" class="node">
<title>gripper</title>
<path fill="#cfd8dc" stroke="black" stroke-width="0.8" d="M95.12,-36C95.12,-36 35.12,-36 35.12,-36 29.12,-36 23.12,-30 23.12,-24 23.12,-24 23.12,-12 23.12,-12 23.12,-6 29.12,0 35.12,0 35.12,0 95.12,0 95.12,0 101.12,0 107.12,-6 107.12,-12 107.12,-12 107.12,-24 107.12,-24 107.12,-30 101.12,-36 95.12,-36"/>
<text text-anchor="middle" x="65.12" y="-21" font-family="Helvetica Neue, Helvetica, Arial, sans-serif" font-size="10.00" fill="#37474f">robotiq_gripper</text>
<text text-anchor="middle" x="65.12" y="-10" font-family="Helvetica Neue, Helvetica, Arial, sans-serif" font-size="10.00" fill="#37474f">_controller</text>
</g>
<!-- cmd_exec&#45;&gt;gripper -->
<g id="edge6" class="edge">
<title>cmd_exec&#45;&gt;gripper</title>
<path fill="none" stroke="#e65100" stroke-width="1.4" stroke-dasharray="5,2" d="M250.11,-117.88C211.08,-97.02 145.2,-61.81 103.5,-39.51"/>
<polygon fill="#e65100" stroke="#e65100" stroke-width="1.4" points="104.6,-37.33 97.27,-36.19 102.29,-41.65 104.6,-37.33"/>
<text text-anchor="start" x="194.12" y="-79.1" font-family="Helvetica Neue, Helvetica, Arial, sans-serif" font-weight="bold" font-size="8.00" fill="#e65100">/…/gripper_cmd</text>
<text text-anchor="start" x="187.12" y="-71.9" font-family="Helvetica Neue, Helvetica, Arial, sans-serif" font-size="7.00" fill="#999999">GripperCommand action</text>
</g>
<!-- elmo -->
<g id="node7" class="node">
<title>elmo</title>
<polygon fill="#cfd8dc" stroke="black" stroke-width="0.8" points="327.12,-36 247.12,-36 243.12,-32 243.12,0 323.12,0 327.12,-4 327.12,-36"/>
<polyline fill="none" stroke="black" stroke-width="0.8" points="323.12,-32 243.12,-32 "/>
<polyline fill="none" stroke="black" stroke-width="0.8" points="323.12,-32 323.12,0 "/>
<polyline fill="none" stroke="black" stroke-width="0.8" points="323.12,-32 327.12,-36 "/>
<text text-anchor="middle" x="285.12" y="-21" font-family="Helvetica Neue, Helvetica, Arial, sans-serif" font-size="10.00" fill="#37474f">ELMO Drives</text>
<text text-anchor="middle" x="285.12" y="-10" font-family="Helvetica Neue, Helvetica, Arial, sans-serif" font-size="10.00" fill="#37474f">(carriage + lift)</text>
</g>
<!-- cmd_exec&#45;&gt;elmo -->
<g id="edge7" class="edge">
<title>cmd_exec&#45;&gt;elmo</title>
<path fill="none" stroke="#78909c" d="M282.57,-117.88C283.08,-98.18 283.92,-65.67 284.49,-43.34"/>
<polygon fill="#78909c" stroke="#78909c" points="286.95,-43.25 284.68,-36.19 282.05,-43.12 286.95,-43.25"/>
<text text-anchor="start" x="284.12" y="-75.1" font-family="Helvetica Neue, Helvetica, Arial, sans-serif" font-size="8.00" fill="#546e7a">/elmo/id1/{carriage,lift}/position/set</text>
</g>
<!-- jtc -->
<g id="node8" class="node">
<title>jtc</title>
<path fill="#cfd8dc" stroke="black" stroke-width="0.8" d="M887.62,-36C887.62,-36 826.62,-36 826.62,-36 820.62,-36 814.62,-30 814.62,-24 814.62,-24 814.62,-12 814.62,-12 814.62,-6 820.62,0 826.62,0 826.62,0 887.62,0 887.62,0 893.62,0 899.62,-6 899.62,-12 899.62,-12 899.62,-24 899.62,-24 899.62,-30 893.62,-36 887.62,-36"/>
<text text-anchor="middle" x="857.12" y="-21" font-family="Helvetica Neue, Helvetica, Arial, sans-serif" font-size="10.00" fill="#37474f">joint_trajectory</text>
<text text-anchor="middle" x="857.12" y="-10" font-family="Helvetica Neue, Helvetica, Arial, sans-serif" font-size="10.00" fill="#37474f">_controller</text>
</g>
<!-- robot_ctrl&#45;&gt;jtc -->
<g id="edge5" class="edge">
<title>robot_ctrl&#45;&gt;jtc</title>
<path fill="none" stroke="#e65100" stroke-width="1.4" stroke-dasharray="5,2" d="M789.78,-117.88C803.43,-97.84 826.12,-64.53 841.34,-42.18"/>
<polygon fill="#e65100" stroke="#e65100" stroke-width="1.4" points="843.5,-43.35 845.42,-36.19 839.45,-40.59 843.5,-43.35"/>
<text text-anchor="start" x="823.12" y="-79.1" font-family="Helvetica Neue, Helvetica, Arial, sans-serif" font-weight="bold" font-size="8.00" fill="#e65100">/…/follow_joint_trajectory</text>
<text text-anchor="start" x="829.62" y="-71.9" font-family="Helvetica Neue, Helvetica, Arial, sans-serif" font-size="7.00" fill="#999999">FollowJointTrajectory action</text>
</g>
<!-- elmo&#45;&gt;cmd_exec -->
<g id="edge8" class="edge">
<title>elmo&#45;&gt;cmd_exec</title>
<path fill="none" stroke="#b0bec5" stroke-width="0.8" stroke-dasharray="5,2" d="M327.48,-23.67C376.03,-30.83 445.79,-47.77 420.12,-84.5 406.95,-103.36 385.93,-115.19 364.23,-122.62"/>
<polygon fill="#b0bec5" stroke="#b0bec5" stroke-width="0.8" points="363.4,-120.31 357.48,-124.78 364.9,-124.98 363.4,-120.31"/>
<text text-anchor="start" x="426.12" y="-75.1" font-family="Helvetica Neue, Helvetica, Arial, sans-serif" font-size="8.00" fill="#90a4ae">/elmo/id1/{carriage,lift}/position/get</text>
</g>
</g>
</svg>
